<svg width="85" height="101" viewBox="0 0 85 101" fill="none" xmlns="http://www.w3.org/2000/svg">
<path d="M0.586426 86.1005V83.2578H13.4518V86.1005H8.55043V100.656H5.48776V86.1005H0.586426Z" fill="#24C7B1"/>
<path d="M22.972 96.0621C23.34 95.4167 23.524 94.6861 23.524 93.8687C23.524 93.0194 23.34 92.2714 22.972 91.6261C22.604 90.9807 22.1027 90.4874 21.4653 90.1434C20.828 89.8007 20.1253 89.6287 19.3573 89.6287C18.5893 89.6287 17.8947 89.8007 17.2747 90.1434C16.6533 90.4874 16.16 90.9807 15.792 91.6261C15.424 92.2714 15.24 93.0194 15.24 93.8687C15.24 94.6861 15.424 95.4167 15.792 96.0621C16.16 96.7074 16.6573 97.2101 17.2867 97.5687C17.916 97.9287 18.6067 98.1087 19.3573 98.1087C20.1253 98.1087 20.828 97.9287 21.4653 97.5687C22.1027 97.2101 22.604 96.7074 22.972 96.0621M13.1213 97.4221C12.476 96.3274 12.1533 95.1434 12.1533 93.8687C12.1533 92.5621 12.476 91.3607 13.1213 90.2661C13.7667 89.1714 14.64 88.3101 15.7427 87.6807C16.8453 87.0514 18.0507 86.7381 19.3573 86.7381C20.664 86.7381 21.8693 87.0514 22.972 87.6807C24.0747 88.3101 24.9493 89.1714 25.5947 90.2661C26.24 91.3607 26.5627 92.5621 26.5627 93.8687C26.5627 95.1434 26.24 96.3274 25.5947 97.4221C24.9493 98.5167 24.0747 99.3861 22.972 100.033C21.8693 100.677 20.664 101.001 19.3573 101.001C18.0507 101.001 16.8453 100.677 15.7427 100.033C14.64 99.3861 13.7667 98.5167 13.1213 97.4221" fill="#24C7B1"/>
<path d="M29.2451 98.2922C28.7464 97.4349 28.4971 96.4589 28.4971 95.3642V87.0802H31.5357V95.5349C31.5357 96.3682 31.7891 97.0096 32.2957 97.4589C32.8024 97.9082 33.4717 98.1336 34.3051 98.1336C35.1544 98.1336 35.8211 97.9002 36.3024 97.4349C36.7851 96.9682 37.0251 96.3362 37.0251 95.5349V87.0802H40.1131V95.3642C40.1131 96.4589 39.8637 97.4349 39.3664 98.2922C38.8677 99.1496 38.1771 99.8162 37.2957 100.29C36.4131 100.763 35.4157 101 34.3051 101C33.1944 101 32.1984 100.763 31.3157 100.29C30.4331 99.8162 29.7437 99.1496 29.2451 98.2922Z" fill="#24C7B1"/>
<path d="M42.968 97.4098C42.3227 96.3072 42 95.1018 42 93.7952C42 92.4885 42.3227 91.2872 42.968 90.1925C43.6133 89.0978 44.492 88.2285 45.6027 87.5832C46.7133 86.9378 47.9227 86.6152 49.2293 86.6152C50.2427 86.6152 51.2027 86.8152 52.1093 87.2152C53.016 87.6152 53.804 88.1672 54.4733 88.8698L52.4893 90.9032C52.096 90.4618 51.6227 90.1192 51.0667 89.8738C50.512 89.6285 49.9 89.5072 49.2293 89.5072C48.4773 89.5072 47.784 89.6938 47.1467 90.0698C46.5093 90.4458 46.0067 90.9605 45.6387 91.6138C45.272 92.2672 45.088 92.9952 45.088 93.7952C45.088 94.5952 45.272 95.3272 45.6387 95.9885C46.0067 96.6498 46.5093 97.1685 47.1467 97.5445C47.784 97.9205 48.4773 98.1085 49.2293 98.1085C50.4707 98.1085 51.5 97.6992 52.3173 96.8832L54.3027 98.8925C53.6493 99.5618 52.8853 100.08 52.0107 100.448C51.1373 100.816 50.2093 101 49.2293 101C47.9227 101 46.7133 100.678 45.6027 100.032C44.492 99.3872 43.6133 98.5125 42.968 97.4098Z" fill="#24C7B1"/>
<path d="M68.6987 100.633H65.66V89.9486H59.5094V100.633H56.4707V83.2579H59.5094V87.0806H68.6987V100.633Z" fill="#24C7B1"/>
<path d="M78.1378 85.1628L81.0952 81.9748H77.6711L75.3618 85.1628H78.1378Z" fill="#24C7B1"/>
<path d="M73.6822 93.865C73.6822 93.8557 73.6836 93.8477 73.6836 93.8384C73.6836 93.8317 73.6822 93.825 73.6822 93.8184C73.6822 92.8344 73.9942 91.9664 74.6102 91.2291C74.8662 90.9144 75.1689 90.6397 75.5062 90.4144C75.5169 90.4064 75.5289 90.401 75.5396 90.393C75.6329 90.333 75.7276 90.2731 75.8262 90.2197C75.9262 90.1651 76.0302 90.1171 76.1342 90.0717C76.1476 90.0664 76.1609 90.0584 76.1742 90.0531C76.2782 90.0091 76.3849 89.9717 76.4929 89.9384C76.5129 89.9317 76.5329 89.9224 76.5542 89.9157C76.6156 89.897 76.6796 89.885 76.7409 89.869C77.0476 89.7917 77.3676 89.749 77.6996 89.7464C77.7222 89.7464 77.7449 89.7424 77.7689 89.7424C77.7702 89.7424 77.7716 89.7437 77.7729 89.7437C77.7756 89.7437 77.7782 89.7424 77.7809 89.7424C77.9209 89.7451 78.0582 89.7544 78.1942 89.769C78.2836 89.7784 78.3702 89.7917 78.4582 89.805C78.5009 89.813 78.5436 89.8211 78.5862 89.8304C78.7636 89.8651 78.9369 89.9117 79.1062 89.9691C79.1409 89.9811 79.1769 89.9904 79.2102 90.0037C79.2836 90.0304 79.3569 90.0611 79.4276 90.0931C79.5222 90.1331 79.6142 90.1784 79.7049 90.225C79.7302 90.2384 79.7569 90.2477 79.7822 90.2624C79.7876 90.265 79.7929 90.2704 79.7996 90.2731C80.0116 90.3917 80.2129 90.5277 80.3996 90.681L73.7409 94.5357C73.7062 94.317 73.6822 94.0944 73.6822 93.865ZM81.7622 95.8984C81.3156 96.5264 80.7329 97.025 80.0302 97.3797C79.3329 97.7277 78.5729 97.905 77.7689 97.905C76.7862 97.905 75.9156 97.593 75.1769 96.9757L84.6729 91.4904L83.8796 90.1757C83.2396 89.0971 82.3636 88.2384 81.2769 87.6224C80.1889 87.0064 79.0089 86.693 77.7689 86.693C75.8062 86.693 74.1116 87.3957 72.7342 88.7824C71.3476 90.1691 70.6436 91.8637 70.6436 93.8184C70.6436 95.781 71.3476 97.4784 72.7342 98.865C74.1129 100.244 75.8062 100.942 77.7689 100.942C79.0862 100.942 80.3449 100.632 81.5089 100.017C82.6729 99.4024 83.6276 98.549 84.3489 97.481L84.4662 97.305L81.8689 95.7477L81.7622 95.8984Z" fill="#24C7B1"/>
<path d="M62.9411 0.815844H59.5171L56.6011 4.83984H59.2077L62.9411 0.815844Z" fill="#24C7B1"/>
<path d="M62.3595 46.4785C62.3595 45.7558 61.7742 45.1718 61.0529 45.1718C60.3302 45.1718 59.7462 45.7558 59.7462 46.4785C59.7462 55.2825 52.1809 62.7211 43.2262 62.7211H41.9235C33.0289 62.7211 25.5142 55.2825 25.5142 46.4785V27.3945C25.5142 18.6451 33.2555 10.9705 42.0822 10.9705H43.2409C52.0329 10.9705 59.7462 18.6451 59.7462 27.3945C59.7462 28.1158 60.3302 28.7011 61.0529 28.7011C61.7742 28.7011 62.3595 28.1158 62.3595 27.3945C62.3595 17.0745 53.6049 8.35714 43.2409 8.35714H42.0822C31.6849 8.35714 22.9009 17.0745 22.9009 27.3945V46.4785C22.9009 56.6985 31.6115 65.3345 41.9235 65.3345H43.2262C53.5982 65.3345 62.3595 56.6985 62.3595 46.4785Z" fill="#24C7B1"/>
<path d="M30.1299 64.4461C23.9113 60.6995 20.0473 53.7795 20.0473 46.3848V27.4875C20.0473 20.1141 23.978 12.9608 30.0606 9.26614C30.6779 8.89148 30.874 8.08748 30.4993 7.47014C30.1246 6.85414 29.3206 6.6568 28.7046 7.03147C21.8566 11.1915 17.4326 19.2208 17.4326 27.4875V46.3848C17.4326 54.6901 21.7819 62.4688 28.7806 66.6848C28.9926 66.8128 29.2246 66.8728 29.4539 66.8728C29.8979 66.8728 30.3299 66.6475 30.5753 66.2408C30.9473 65.6221 30.7473 64.8181 30.1299 64.4461Z" fill="#24C7B1"/>
<path d="M56.4704 6.98062C55.8544 6.60595 55.049 6.80728 54.677 7.42728C54.305 8.04462 54.505 8.84729 55.1237 9.21929C61.253 12.9086 65.213 20.078 65.213 27.4873V46.3846C65.213 53.7859 61.3437 60.7099 55.1157 64.4539C54.497 64.8259 54.2984 65.6286 54.6704 66.2473C54.9144 66.6553 55.3477 66.8806 55.7904 66.8806C56.021 66.8806 56.253 66.8206 56.4637 66.6939C63.4717 62.4806 67.8264 54.6979 67.8264 46.3846V27.4873C67.8264 19.182 63.369 11.1313 56.4704 6.98062Z" fill="#24C7B1"/>
<path d="M36.6552 48.57C36.3512 47.9167 35.5738 47.6327 34.9178 47.9367C34.2645 48.242 33.9805 49.018 34.2845 49.674C35.7898 52.906 39.0645 54.9954 42.6298 54.9954C47.7018 54.9954 51.8285 50.87 51.8285 45.7967V27.5927C51.8285 22.5194 47.7018 18.394 42.6298 18.394C37.5565 18.394 33.4312 22.5194 33.4312 27.5927V43.654C33.4312 44.3754 34.0165 44.9607 34.7378 44.9607C35.4605 44.9607 36.0445 44.3754 36.0445 43.654V27.5927C36.0445 23.9607 38.9992 21.0074 42.6298 21.0074C46.2605 21.0074 49.2152 23.9607 49.2152 27.5927V45.7967C49.2152 49.4287 46.2605 52.382 42.6298 52.382C40.0765 52.382 37.7325 50.886 36.6552 48.57Z" fill="#24C7B1"/>
<path d="M42.6297 49.1113C43.3524 49.1113 43.9364 48.526 43.9364 47.8047V29.158H45.9884C46.711 29.158 47.295 28.5727 47.295 27.8513C47.295 27.1287 46.711 26.5447 45.9884 26.5447H39.271C38.5484 26.5447 37.9644 27.1287 37.9644 27.8513C37.9644 28.5727 38.5484 29.158 39.271 29.158H41.323V47.8047C41.323 48.526 41.907 49.1113 42.6297 49.1113Z" fill="#24C7B1"/>
<path d="M42.797 60.3528C34.9677 60.3528 28.229 54.0075 28.229 46.4955V27.6328C28.229 26.9088 28.8157 26.3221 29.5397 26.3221C30.2637 26.3221 30.8503 26.9088 30.8503 27.6328V46.4955C30.8503 52.5861 36.389 57.7328 42.797 57.7328C48.973 57.7328 54.4103 52.5861 54.4103 46.4955V27.1821C54.4103 23.9435 52.9157 20.8461 50.309 18.6821C49.7517 18.2195 49.6757 17.3941 50.137 16.8368C50.5997 16.2795 51.425 16.2035 51.9823 16.6661C55.1903 19.3288 57.0303 23.1621 57.0303 27.1821V46.4955C57.0303 54.0075 50.3357 60.3528 42.797 60.3528Z" fill="#24C7B1"/>
</svg>
